<svg id="Слой_2" data-name="Слой 2" xmlns="http://www.w3.org/2000/svg" viewBox="0 0 1852.36 488.5"><title>black</title><path d="M338.53,0c114,0,214.76,40.56,276.11,102.75,4.19,4.15,8.12,8.33,11.74,12.51,1.51,1.74,3,3.57,4.38,5.47,29.42,36.15,46.3,78.23,46.3,123.17,0,134.7-151.57,243.9-338.53,243.9S0,378.61,0,243.9,151.56,0,338.53,0h0Zm-132,453.08c-9.26-8.3,21.77,9.75,28.59,11.16s6.34-1.84,10.64-3h0C200.43,444.5,161,420.69,130.3,391.69H82.49c37,32.54,86,57.88,142.15,72.63-6.94-3.42-13.67-7.3-18.09-11.26h0ZM261,457c5.19-.5,10.53,2.54,15.53,1.16a17.66,17.66,0,0,0,5-2.43q-5.69-3.45-11.18-7.08a3.23,3.23,0,0,1-1.76,1.49c-2.73,1-8-2.23-9.64-2.67s-3.44,2.67-4.48,0a11.1,11.1,0,0,0-3.44-4.68c-1.09-1.06-4.51-4.77-6.54-6.35a31.08,31.08,0,0,0-5.51-3c-0.92-.5-5.85-1-9.64-3.34s-7.23-4.68-10.33-7-6.2-3.67-8.95-7-3.44-4.34-5.5-7-10.25-7.43-13.69-10.73a83,83,0,0,1-5.93-6.68H143.52C175,419.38,215.13,441.85,261,457h0Zm28.26-7.8c3-2.77,2.29-6,5.11-7.43a10.14,10.14,0,0,1,3.6-1,303.22,303.22,0,0,1-39.62-49.1H222.75c1.09,2,2.17,3.79,2.48,4.34l4.13,7.35c0.07,0.13.2,0.33,0.38,0.61a309.41,309.41,0,0,0,59.49,45.22h0Zm29.71-2.45c7-1.91,16.52-6.76,16.52-6.76V391.69H269.81a298.06,298.06,0,0,0,49.13,55.07h0Zm25.9-6.76a25,25,0,0,1,8.7,3.21c1.77,1.06,8.61,2.74,8.71,2.76a297.93,297.93,0,0,0,48.26-54.29H344.85V440h0Zm33.24,5.06c3.25-.84,7.06-1.82,8.7,1a13.8,13.8,0,0,0,3.68,3.55,303.91,303.91,0,0,0,72-57.91H422a304.43,304.43,0,0,1-44,53.36h0.06Zm21.65,10.14c2.91,1.54,5.48,2.77,6.66,3.33A31.32,31.32,0,0,0,410,460c49.74-15.14,93.19-38.75,126.79-68.28h-62.1c-20.48,24.25-45.86,45.72-75,63.5h0Zm34.72,6,0.2-.07c2.08-.77,11.63.74,12,2.36,0.25,1,2,1.22,4.41,1.19,56.76-14.7,106.25-40.2,143.57-73H550c-30.69,29-70.19,52.84-115.62,69.54h0ZM171.5,92.19h14.73c1.59-1.31,6.31-5.28,7.26-7.14,1.15-2.24,2.31-3.36,3.46-5.32s4,1.68,4,1.68,4.32,4.48,7.21,6.17a8.38,8.38,0,0,0,4.39.59q2.76-3,5.63-6l-6.56-5-7.79-2.24s12.15-7.24,13.59-9.24,0.58-3.36,0-5.89-9.81,4.48-9.81,4.48l-4.78,2.41-6.16,6.56-4.4,1.14s3.81-10,3.81-11.4c0-.7-1.56-1.33-3.47-1.79q-5.83,3.36-11.45,6.89c-0.57,1.19-.93,2-0.93,2l-4.55,1.51q-6.25,4.13-12.18,8.48a11.27,11.27,0,0,0-1.74,3.69c0,1.71,2.05,3.42,3.81,4.27a58.3,58.3,0,0,1,5.92,4.16h0Zm81.28,0h8.09a305.69,305.69,0,0,1,42.5-50.5,13.45,13.45,0,0,1-3.44-.77c-1.72-1-6.77-2.34-9.29-1l-15.14,8c-2.52,1.34-6.89,6-9.3,8.35s-3.79,7-5.85,9.69-10,6.35-15.14,8.35-1.72,6-1.72,7.68,3.79,5,5.85,5.35c1.22,0.2,2.55,2.5,3.44,4.83h0v0Zm19.77,0h51.9L324.37,92c-2.75-5,.69-6.35,3.1-12s6.2-8.69,7.57-11.36a6.59,6.59,0,0,0,.43-1V65.21A12.91,12.91,0,0,1,335,62c0-3.34-.34-8-0.34-10S333,46.69,332,44.35,326.79,40,324.72,40s-2.41.67-5.16,2a6.83,6.83,0,0,1-2.11.44,298.87,298.87,0,0,0-44.89,49.82h0V92.19Zm83.55,0h1.15l5-2.79s2.58-2.51,2.44-8.21S368,78.27,368,78.27s6.88-4.18,6.88-6.4a2.23,2.23,0,0,0-2.23-2.23h-0.06s-7.16.28-10,1.39-4.58,7-5.73,9.74S354.55,83,354.55,85a42.43,42.43,0,0,0,1.51,7.24h0Zm-24.77,9H266.41a268.05,268.05,0,0,0-30,61.51h80.48c1-2.56,14.42-10.59,15.09-13.85s-1.72-3.34-5.16-10.36-4.82-8.69-5.51-13.36,0.34-5,3.1-7.35a28.86,28.86,0,0,0,7.91-9.35c2.31-4.2.5-4.65-1-7.24h0Zm-76.24,0h-1l0.07,1.62,1-1.62h0ZM29.26,162.69H66.64c-0.08-.83-0.18-1.71-0.34-2.53-0.43-2.3-3-7.31-4.3-10.23a27.08,27.08,0,0,1-1.94-7.1c-0.43-2.3-.4-9.43-1.5-10.65-0.86-.95-4.08-3.1-5.73-5.37a212.19,212.19,0,0,0-23.57,35.88h0Zm163.72,0h33.7a275.43,275.43,0,0,1,19.24-45.54c-2.09.86-4.31,1.58-5.19,2a106.54,106.54,0,0,0-13.08,7.68c-4.13,3-4.13,10.36-4.82,13.36s-5.16,5.35-6.88,5.35-12,1.34-20.31,2.67-6.37,2.12-5.85,4,3.33,7,3.2,10.51h0v0Zm309.85,9h-17a16.49,16.49,0,0,1,2.37,3.23c1,2.67,3.79,3.67,6.54,3.67s7.92,4.68,10.67,6.35,0.34,10.36,0,13-7.74,6.74-8.6,7.35L491.65,209c-0.86.61-5.51,7-7.92,8.68s-6.54,2.67-9,2-4.13-1-4.13-1-2.75-4.68-4.82-7.35a6.23,6.23,0,0,0-1.7-1.43q0.82,6.37,1.33,12.82a6.72,6.72,0,0,0,2.43,1.31c3.51,1.33,11.22,2.78,16.18,3.34s10.12-1.71,13.42,0,2.29,7,2.75,8.35c0.19,0.59-.91,2.14-2.42,3.72H522.2A204.73,204.73,0,0,0,511.33,178a33.1,33.1,0,0,1-5.92-2.48c-2.15-1.33-2.52-2.55-2.57-3.9h0v0Zm-186,0H233.53a253.76,253.76,0,0,0-10.25,61.4h7.47c2.41,0,6.31-.61,10.33,0l24.08,3.6c1.14,0.17,1.8,1.25,2.12,2.72h33c-0.84-3.19-1.79-6.29-2.75-9.07-1.38-4-1.37-10.69-1.37-13.36s4.47-12.7,4.47-12.7,8.6-13.36,12-16.7c3.21-3.12,4-10.6,4.12-15.93h0Zm-92.8,0H184.87c-2.41,2.33-7.51,7.15-9.2,8.24-2.06,1.34-3.44,7-5.16,9.69s-1,10.8-.35,11.69a42.13,42.13,0,0,1,4.13,5.34c1,1.87,2,3.92,1.72,5.68s-2.58,3.06-3.1,3.68-4.48-.83-7.92,1,0.46,3.8,3.1,4.68,9.18,0,11,0,4.47,1.34,10,1.34,6,2.45,7.92,3,8,2.23,11.36,3.34c2,0.67,4.19,1.54,5.92,2.25A265.81,265.81,0,0,1,224,171.69h0Zm-154.51,0H24.91A174.54,174.54,0,0,0,9.06,239.41h52a181.06,181.06,0,0,1,11.45-58.72c-0.83-2.26-1.58-4.7-2.33-7-0.24-.74-0.48-1.43-0.72-2.06h0v0.06Zm3.3,211h48.45C103,363.78,88.36,342.88,78.06,320.55h-51C37.89,343,53.42,363.94,72.77,382.69h0Zm61,0h45.84c-0.52-3.94-.52-10.74-0.52-10.74s-5.16-25.06-6.19-28.4c-0.29-1-.5-1.71-0.71-2.42q-2.43-4.89-4.61-9.87c-1.56-1.71-3-1.75-5-4.41-2.63-3.51-6.21-4-9.83-6.34H88.06c10.88,22.47,26.41,43.39,45.77,62.18h-0.06Zm86.29,0h32.71a279.41,279.41,0,0,1-21.71-45l-5.13,2.86c-2.3,1.28-3.79,10-5.16,12.36s-2.75,9-2.75,11,1.38,9.69,1.38,9.69,0.47,5.47.63,9.06h0Zm43.87,0h71.53V320.55h-87.4c0.87,1.13,1.24,2.21.53,3-2.41,2.67-6.65,8.07-8.95,9.35l-0.47.26a268.71,268.71,0,0,0,24.72,49.53h0Zm81,0h59.82c-2.7-1.27-4-.53-5.62-2.72s-3.1-8.35-3.44-11-1.72-8-2.41-11.36-2.75-6-5.16-10.36-0.35-5.35-.35-7.35v-12a43.68,43.68,0,0,1,1.52-7.35H344.85v62.14h0.08Zm82.73,0h42.53a235.48,235.48,0,0,0,37.23-62.18h-32c-3.59,2.24-8.64,5.38-11.89,7.35a29.75,29.75,0,0,0-11,12.36c-1.38,3.34-.34,3.34-0.34,6s-3.79,8.35-5.85,9.69a58.28,58.28,0,0,0-7.38,5.78q-5.23,10.75-11.38,21.06h0Zm54.37,0h64.56C566,363.9,581.48,343,592.35,320.51H517.06A242.27,242.27,0,0,1,482,382.69H482Zm77,0h43.75l5.65-13.62,2-13.92,18.91-18.1L644,324l4.58-.44q0.76-1.5,1.49-3H602.21c-10.26,22.35-24.88,43.25-43.15,62.16h0ZM22.94,311.57h51.3a181.63,181.63,0,0,1-13.18-63.18h-52A173.8,173.8,0,0,0,22.9,311.57h0Zm61,0h59.62c-1.67-2.75-3.71-5.72-3.71-5.72s-10.67-9.35-14.11-13-3.44-3.67-3.78-5.68,0.69-6.35.69-9-1.38-2.34-4.47-6.35-5.85-4-5.85-5.68,2.17-8.88,4.13-10.69c1.28-1.18,4.65-4.24,7.66-7h-54A173.75,173.75,0,0,0,84,311.63h0Zm157,0h94.52V265c-1.82-2-5.53-4.68-6.63-6.28-1.38-2-7.23-4.34-9.64-5.68s-7.57-2-11.36-3a11.35,11.35,0,0,1-4.14-1.67H266.43a2.38,2.38,0,0,1-.93,1.33c-1.72.67-6.19,3.67-8.6,4.68s-6.54,4.68-6.54,4.68-3.1,9.35-4.13,12.36-1.72,14-2.41,15.7,0,15-1.72,18.38a14.67,14.67,0,0,0-1.16,6.06h0Zm103.91,0h47.4c1.12-2.56,2.33-5.06,2.33-5.06s-11.36-20.38-14.11-27.06-3.1-4.68-4.13-7.35-9.29-9-12-10.69-1.72.67-3.79,1.67c-1.49.72-10.64,5.42-15.65,8v40.49h0Zm135.77,0h30.09a205,205,0,0,0,11.49-63.18H486c-2.14,2.45-4.18,5.18-5,6.34-1.72,2.34-2.75,13.36-3.44,16s-8.6,12.36-10.67,13.7-1.72,9-1.38,10.69,7.57,7.68,12.74,12.7a8.85,8.85,0,0,1,2.4,3.72h0Zm39.69,0h76a173.73,173.73,0,0,0,13.84-63.18h-79a214.64,214.64,0,0,1-10.92,63.18h0.08Zm85.76,0h48.07a174.49,174.49,0,0,0,13.51-56.38c-3,.54-7.06.63-7.06-0.79v-6H646.38c2.14,3,5.14,7.11,7.33,10,3.78,5,2.06,9,2.06,9a65,65,0,0,1-8.94-4.34c-3.78-2.34-7.91-4-14.44-8-1.94-1.19-3.55-3.72-4.84-6.68h-8.34a181.68,181.68,0,0,1-13.15,63.19h0Zm-536-72.16h63.76a3.52,3.52,0,0,0,.19-1.17c0-2.92-4.84-5.92-5.81-7.1s-6-2.3-11.19-5.64-3.44-2.51-3.44-2.51-5.59-2.71-7.1-3.76a7.55,7.55,0,0,1-3.23-3.55c-0.86-1.88-3.23-4.18-4.52-6.05s-1.94-1.88-3.87-4.59-4.52-3.76-7.31-5.85-5.38-3.76-7.53-6.26c-0.57-.66-1.1-1.29-1.62-1.92a171.79,171.79,0,0,0-8.33,48.4h0Zm461.11,0h79a171.29,171.29,0,0,0-6.66-42.72c-5-1.56-15.06-.74-16.94-0.74-2.41,0-1.72,4.68-1.72,8.35s-7.23,12.39-9.64,17.39-6.2,6-6.2,6-5.16-10.69-6.88-12.36-2.41-1.67-7.23-9.69-3.44-4.68-5.16-7-8.61-5.68-11-6.35-8.26,4.34-10.32,4.34a6.63,6.63,0,0,1-2.59-.47,213.63,213.63,0,0,1,5.35,43.28h0v0Zm88,0h5.46a36,36,0,0,1-1.22-7.39c0.34,0-2.41-11.36-5.51-16-0.42-.63-0.8-1.18-1.16-1.68a179.17,179.17,0,0,1,2.43,25.11h0v0ZM205.79,43.93a7.26,7.26,0,0,1-1.64.2c-2.88,0-4,0-5.48-1.12s-2.88-4.2-4.61-5.89-4.32,2.8-4.32,2.8l5,9.79q5.42-3,11-5.79h0.05Zm-55.92,35.3-0.51-.35-6.92-4.2-11.25-5-6.63,2-8.36,5v8.41l6.06,5.32L132.64,84H137l3.62,2.93q4.54-3.88,9.29-7.62h0v0Zm53.08-23.8,4.95-.66,2.85-3.37q-3.95,2-7.8,4h0v0Zm49.11-3.3a18.91,18.91,0,0,0,2.58-6.88c0.58-3.92-4.88-8-7.79-2.24l-5.19,10.37s-0.51-9.21-2.6-4.48l-3.46,7.85V64l3.67-1.59,1.92-1.63L241.94,59l2.71-1q3.64-3,7.39-5.83h0Zm-98.8,149.56c-0.42-3-.62-2.55-2.4-4.52-2-2.23-4.3-.56-7.16-0.28s-4.87,5.57-10.31,8.63-2-4.45-6-10.3-3.72-1.67-8.31-1.67-5.44,3.34-5.73,5.85,14.71,10.68,14.59,10.29-0.86,2.37-3.87,5.29,1.2,9,1.2,9l8.11,2.92,6-7.24s6.3-.56,8.31-0.56a15.64,15.64,0,0,0,2.79-.15q1-8.74,2.76-17.32h0ZM344.85,134.2v2.22a13.16,13.16,0,0,0,7.69,5.63,15.17,15.17,0,0,1,6.3,2.78l14.61,1.39s3.44,5.57,5.44,7.52,5.44,2.5,7.45,3.34,16.61,0,19.48,0,7.45,0.28,9.17.28,8.88,0,10.88-.56,5.44-4.73,5.44-4.73-3.15-6.68-4.3-8.91-2.29-6.68-5.16-8.63-2.29.84-4,.84-7.45,1.39-9.17,1.39-4,.56-6,0.28-3.73-.84-8.88-6.68-4.3,8.35-4.87,10-3.44,4.45-3.44,4.45a23.62,23.62,0,0,1-6-3.06c-2.58-1.95-2.58-3.34-4.58-6.12s-1.72-5.57-3.44-10a11.48,11.48,0,0,0-6.3-7c-2.3-1.15-9.45,1.95-11.75,2.78-2,.72-7.17,9.35-8.54,12.75h0Zm92.72-10.86q3.82,7.63,7.17,15.48l1.75,0.72s6.3-2.23,6-3.62-6-9.73-7.45-11.41-3.89-1.67-6.4-1.67a1.42,1.42,0,0,0-1.09.5h0Zm230.27,112.9a173.88,173.88,0,0,0-13-58.3c-3.72.92-7.85,1.53-9.38,2-2.58.72-6.19,8.69-6.19,10.36s3.09,9.35,5.84,13.7,1.37,6,1.37,6v9.69c0,2.34-.69,4-2.41,4s-4.81-2-12.72-3-0.35,6.68-.35,6.68,6.88,6.35,13.75,8,4.82,0,11-.34,5.16,0.67,9.62.67a5.54,5.54,0,0,1,2.44.54h0ZM457.06,358.81l6.16-2.51s2-2.09,2.72-2.78,1.58-4.18,1.86-5.29,5.3-7.93,5.3-7.93l-0.57-5.71s-7.88.84-8.88,1-1.72,7.24-1.72,7.24l-4,8.35-0.87,7.63h0Zm-104.78-292L358.82,64l2-5.85V52.37c0-2.78-14.74-8.56-14.33-3.62l1,12,4.78,6.1h0v0ZM223.77,106.07s1.73,6.73,2.31,8.69-3.75,6.16,2,5,11.25-5.88,11.25-5.88l5.19-2.52c2.85-1.38,3.46-5,3.46-5l-2-2.8L237.9,103l-14.13,3.08h0Zm-57.68.84-3.75-.84L161.76,112l2.88,3.08,4-1.4,2.89-1.4s3,1.27,1.73,5,2,3.36,3.46,4.76a5.07,5.07,0,0,0,3.75,1.12,81.21,81.21,0,0,0,2.6-9c0.29-2.24.51-12.09-5.77-10.37Z" transform="translate(0 0)"/><path d="M757.43,69.91v-65h81.63v65H757.43Zm81.63,341.78H757.43V129.44h81.63V411.69h0Zm55.81,0V12h135l53.7,315.41L1139.84,12h133V411.69h-84.41L1194.13,74l-62.07,337.74H1028.87L968.73,74l6.72,337.74H894.87Zm529.19-164.83h42.3L1446,58.33l-21.89,188.53h0ZM1311.43,411.69L1371.06,12h149l61.15,399.66h-95.45l-11-98.12h-59l-11,98.12h-93.33Zm396.76-133.4v38.77c0,10.38,2.12,17.73,6.25,22s11.12,6.43,21.06,6.43c10.76,0,18-2,21.79-6.16s5.7-11.94,5.7-23.43V287.69c0-8.54-.55-15-1.65-19.11a29.32,29.32,0,0,0-5.33-11c-6.16-7.35-20.23-13.51-42.3-18.28-10.12-2.21-17.93-4-23.45-5.7-25.93-7.35-43.68-17.64-53.42-30.87s-14.53-34-14.53-62.38v-37q0-53.75,20.87-75.06t72.27-21.22h27.61q32.27,0,53.06,5.51t32.55,17.64c6.35,6.25,10.67,14.24,13.24,24s3.77,25.17,3.77,46.49v31H1763v-25q0-18.88-5-25.08c-3.4-4.13-10.12-6.16-20.41-6.16q-14.89,0-20.14,5.79c-3.49,3.86-5.24,11-5.24,21.68v25.77q0,29.35,50.2,42c9.47,2.57,17,4.59,22.62,6.25,25.65,7.17,43.31,17.27,52.87,30.14s14.44,33.44,14.44,61.46v53.84c0,33.44-7.91,57.42-23.81,72.21s-41.83,22.1-77.69,22.1h-24.8q-59.31,0-81.47-20.21t-22.25-74.6v-43.6h85.85Z" transform="translate(0 0)"/><path d="M793.06,469.07c-0.32-6-.7-13.1-0.63-18.42h-0.19c-1.46,5-3.23,10.32-5.38,16.2l-7.53,20.7h-4.18l-6.9-20.32c-2-6-3.73-11.52-4.94-16.58h-0.13c-0.13,5.32-.44,12.47-0.82,18.86l-1.14,18.29H756l3-42.66h7l7.28,20.63c1.77,5.25,3.23,9.94,4.3,14.37h0.19c1.08-4.3,2.59-9,4.49-14.37l7.6-20.63h7l2.66,42.66h-5.38Z" transform="translate(0 0)"/><path d="M825.82,474.39l-4.43,13.42h-5.7l14.49-42.66h6.65l14.56,42.66H845.5l-4.56-13.42H825.82Zm14-4.3-4.18-12.28c-1-2.79-1.58-5.32-2.21-7.79H833.3c-0.63,2.53-1.33,5.13-2.15,7.72L827,470.08h12.85Z" transform="translate(0 0)"/><path d="M869.17,487.8V445.14h6l13.69,21.55a120.78,120.78,0,0,1,7.66,13.86l0.13-.06c-0.51-5.7-.63-10.89-0.63-17.53V445.14h5.19V487.8h-5.57l-13.58-21.64a135.44,135.44,0,0,1-8-14.24l-0.19.06c0.32,5.38.44,10.51,0.44,17.6v18.23h-5.14Z" transform="translate(0 0)"/><path d="M929.23,474.39l-4.43,13.42h-5.74l14.49-42.66h6.65l14.56,42.66h-5.89l-4.51-13.42H929.23Zm14-4.3-4.17-12.29c-1-2.79-1.58-5.32-2.21-7.79h-0.13c-0.63,2.53-1.33,5.13-2.15,7.72l-4.18,12.34h12.85v0Z" transform="translate(0 0)"/><path d="M1004.11,485.91a39.76,39.76,0,0,1-13.1,2.34c-6.46,0-11.77-1.65-16-5.63-3.67-3.54-6-9.24-6-15.89,0.06-12.72,8.8-22,23.1-22a26.36,26.36,0,0,1,10.63,2l-1.33,4.49a22.11,22.11,0,0,0-9.43-1.84c-10.38,0-17.15,6.46-17.15,17.15s6.57,17.16,16.51,17.16c3.61,0,6.08-.51,7.34-1.14V469.83h-8.67V465.4h14v20.51h0Z" transform="translate(0 0)"/><path d="M1046.14,467.8h-16.58v15.38h18.5v4.62h-24V445.14h23v4.62h-17.53v13.48h16.58v4.56h0Z" transform="translate(0 0)"/><path d="M1098.22,487.8V469.69l-13.48-24.56H1091l6,11.77c1.65,3.23,2.91,5.82,4.24,8.8h0.13c1.2-2.78,2.66-5.57,4.3-8.8l6.14-11.77h6.24l-14.3,24.5V487.8h-5.54Z" transform="translate(0 0)"/><path d="M1168.67,466c0,14.68-8.92,22.47-19.81,22.47-11.27,0-19.18-8.73-19.18-21.65,0-13.54,8.42-22.41,19.81-22.41C1161.14,444.45,1168.67,453.37,1168.67,466Zm-33.1.7c0,9.11,4.94,17.28,13.61,17.28s13.67-8,13.67-17.72c0-8.48-4.43-17.34-13.61-17.34s-13.67,8.41-13.67,17.74v0Z" transform="translate(0 0)"/><path d="M1192.84,445.14v25.25c0,9.56,4.24,13.61,9.94,13.61,6.33,0,10.38-4.18,10.38-13.61V445.14h5.57V470c0,13.1-6.9,18.48-16.14,18.48-8.74,0-15.32-5-15.32-18.23V445.14h5.57Z" transform="translate(0 0)"/><path d="M1239.81,445.69a57.29,57.29,0,0,1,10.57-.89c5.89,0,9.68,1.08,12.34,3.48a10.62,10.62,0,0,1,3.35,8.1,11.2,11.2,0,0,1-8,10.89v0.19c3.29,1.14,5.25,4.18,6.27,8.61,1.39,6,2.41,10.06,3.29,11.71h-5.7c-0.7-1.2-1.65-4.87-2.85-10.19-1.27-5.89-3.54-8.1-8.54-8.29h-5.19v18.48h-5.51V445.69h0Zm5.51,19.43H1251c5.89,0,9.62-3.23,9.62-8.1,0-5.51-4-7.91-9.81-8a22.68,22.68,0,0,0-5.44.51v15.59Z" transform="translate(0 0)"/><path d="M1315.82,445.14V487.8h-5.51V445.14h5.51Z" transform="translate(0 0)"/><path d="M1337,487.8V445.14h6l13.68,21.55a120.79,120.79,0,0,1,7.66,13.86l0.13-.06c-0.51-5.7-.63-10.89-0.63-17.53V445.14H1369V487.8h-5.57l-13.54-21.65a135.28,135.28,0,0,1-8-14.24l-0.19.06c0.32,5.38.44,10.51,0.44,17.6V487.8H1337Z" transform="translate(0 0)"/><path d="M1390.12,445.14h23v4.62h-17.47v14.18h16.14v4.56h-16.14v19.3h-5.51V445.14h0Z" transform="translate(0 0)"/><path d="M1468.92,466c0,14.68-8.92,22.47-19.81,22.47-11.27,0-19.18-8.73-19.18-21.65,0-13.54,8.42-22.41,19.81-22.41C1461.39,444.45,1468.92,453.37,1468.92,466Zm-33.1.7c0,9.11,4.94,17.28,13.61,17.28s13.67-8,13.67-17.72c0-8.48-4.43-17.34-13.61-17.34s-13.67,8.41-13.67,17.74v0Z" transform="translate(0 0)"/><path d="M1487.59,445.69a57.29,57.29,0,0,1,10.57-.89c5.89,0,9.68,1.08,12.34,3.48a10.63,10.63,0,0,1,3.35,8.1,11.2,11.2,0,0,1-8,10.89v0.19c3.29,1.14,5.25,4.18,6.27,8.61,1.39,6,2.41,10.06,3.29,11.71h-5.7c-0.7-1.2-1.65-4.87-2.85-10.19-1.27-5.89-3.54-8.1-8.54-8.29h-5.26v18.48h-5.51V445.69h0Zm5.51,19.43h5.63c5.89,0,9.62-3.23,9.62-8.1,0-5.51-4-7.91-9.81-8a22.68,22.68,0,0,0-5.44.51v15.59Z" transform="translate(0 0)"/><path d="M1569.11,469.07c-0.32-6-.7-13.1-0.63-18.42h-0.19c-1.46,5-3.23,10.32-5.38,16.2l-7.53,20.7h-4.18l-6.9-20.32c-2-6-3.73-11.52-4.94-16.58h-0.13c-0.13,5.32-.44,12.47-0.82,18.86l-1.14,18.29h-5.21l3-42.66h7l7.28,20.63c1.77,5.25,3.23,9.94,4.3,14.37h0.19c1.08-4.3,2.59-9,4.49-14.37l7.6-20.63h7l2.66,42.66h-5.38Z" transform="translate(0 0)"/><path d="M1601.83,474.39l-4.43,13.42h-5.7l14.49-42.66h6.65l14.56,42.66h-5.89L1617,474.39h-15.12Zm14-4.3-4.18-12.28c-0.95-2.79-1.58-5.32-2.21-7.79h-0.13c-0.63,2.53-1.33,5.13-2.15,7.72L1603,470.08h12.85Z" transform="translate(0 0)"/><path d="M1648.42,449.83h-13v-4.68h31.64v4.68h-13v38h-5.57v-38h-0.07Z" transform="translate(0 0)"/><path d="M1688.8,445.14V487.8h-5.51V445.14h5.51Z" transform="translate(0 0)"/><path d="M1746.39,466c0,14.68-8.92,22.47-19.81,22.47-11.27,0-19.18-8.73-19.18-21.65,0-13.54,8.42-22.41,19.81-22.41C1738.86,444.45,1746.39,453.37,1746.39,466Zm-33.1.7c0,9.11,4.94,17.28,13.61,17.28s13.67-8,13.67-17.72c0-8.48-4.43-17.34-13.61-17.34s-13.67,8.41-13.67,17.74v0Z" transform="translate(0 0)"/><path d="M1765.06,487.8V445.14h6l13.69,21.55a120.79,120.79,0,0,1,7.66,13.86l0.13-.06c-0.51-5.7-.63-10.89-0.63-17.53V445.14h5.15V487.8h-5.57L1778,466.15a135.45,135.45,0,0,1-8-14.24l-0.19.06c0.32,5.38.44,10.51,0.44,17.6V487.8h-5.14Z" transform="translate(0 0)"/></svg>