<!-- Generator: Adobe Illustrator 25.2.0, SVG Export Plug-In  -->
<svg version="1.1" xmlns="http://www.w3.org/2000/svg" xmlns:xlink="http://www.w3.org/1999/xlink" x="0px" y="0px" width="224px"
	 height="70px" viewBox="0 0 224 70" style="overflow:visible;enable-background:new 0 0 224 70;" xml:space="preserve">
<style type="text/css">
	.st0{fill:#EBECEC;stroke:#E0E0E0;}
	.st1{fill:#9D2550;}
	.st2{fill:#0CAFC0;}
</style>
<defs>
</defs>
<path class="st0" d="M4,0.5h216c1.93,0,3.5,1.57,3.5,3.5v62c0,1.93-1.57,3.5-3.5,3.5H4c-1.93,0-3.5-1.57-3.5-3.5V4
	C0.5,2.07,2.07,0.5,4,0.5z"/>
<path class="st1" d="M68.63,28.78l0.03,2.32v1.88h6.4c0.16,0.59,0.24,1.24,0.24,1.95s-0.08,1.35-0.24,1.95h-6.4v8.18
	c-0.63,0.12-1.42,0.18-2.37,0.18c-0.95,0-1.74-0.06-2.37-0.18V24.91l0.21-0.18h12.74c0.12,0.5,0.18,1.12,0.18,1.86
	c0,0.75-0.21,1.3-0.61,1.65c-0.41,0.36-1.05,0.54-1.93,0.54H68.63z"/>
<path class="st1" d="M89.07,31.52c1.43,1.43,2.14,3.47,2.14,6.13c0,1.19-0.15,2.27-0.46,3.24c-0.31,0.97-0.76,1.8-1.34,2.48
	c-0.58,0.68-1.31,1.21-2.16,1.58c-0.85,0.37-1.84,0.55-2.95,0.55s-2.09-0.19-2.93-0.56c-0.84-0.38-1.56-0.91-2.14-1.59
	c-0.58-0.68-1.03-1.51-1.33-2.48c-0.3-0.97-0.44-2.04-0.44-3.21c0-1.19,0.15-2.27,0.44-3.23c0.3-0.96,0.73-1.79,1.31-2.48
	c0.57-0.69,1.29-1.23,2.14-1.61c0.85-0.38,1.83-0.56,2.95-0.56C86.28,29.76,87.86,30.35,89.07,31.52z M84.33,33.24
	c-0.44,0-0.79,0.1-1.06,0.31c-0.27,0.21-0.49,0.49-0.65,0.85c-0.16,0.36-0.27,0.77-0.33,1.23c-0.06,0.46-0.09,0.97-0.09,1.5
	c0,0.83,0.02,1.55,0.07,2.16c0.05,0.6,0.15,1.11,0.3,1.52c0.15,0.41,0.36,0.71,0.63,0.91c0.27,0.2,0.62,0.3,1.06,0.3
	c0.88,0,1.46-0.38,1.74-1.15c0.28-0.76,0.42-1.85,0.42-3.26c0-1.43-0.14-2.52-0.42-3.26C85.73,33.62,85.17,33.24,84.33,33.24z"/>
<path class="st1" d="M93,32.35c0.1-0.4,0.29-0.84,0.56-1.32c0.28-0.49,0.55-0.84,0.83-1.06c1.83,0.14,3.09,1.04,3.81,2.71
	c0.75-1.78,1.99-2.68,3.72-2.68c0.52,0,1.17,0.08,1.96,0.24c0,0.62-0.11,1.34-0.31,2.19c-0.21,0.84-0.49,1.56-0.85,2.16
	c-0.34-0.12-0.84-0.22-1.52-0.3c-0.99,0-1.81,0.51-2.44,1.52v9.26c-0.65,0.12-1.42,0.18-2.31,0.18c-0.88,0-1.66-0.06-2.34-0.18
	v-9.61C94.14,33.96,93.75,32.93,93,32.35z"/>
<path class="st1" d="M115.53,30.18c0.12,0.55,0.18,1.1,0.18,1.65s-0.06,1.09-0.18,1.62l-3.54-0.06v6.85c0,0.93,0.43,1.4,1.31,1.4
	h1.67c0.26,0.72,0.39,1.38,0.39,1.98c0,0.6-0.04,1.03-0.12,1.29c-1.47,0.2-2.82,0.3-4.05,0.3c-2.5,0-3.75-1.38-3.75-4.15v-7.64
	l-2.32,0.03c-0.14-0.49-0.21-1.03-0.21-1.61c0-0.58,0.07-1.13,0.21-1.67l2.32,0.06v-1.73c0-1.01,0.2-1.73,0.58-2.16
	c0.39-0.43,1.04-0.64,1.95-0.64h1.82l0.21,0.21v4.32L115.53,30.18z"/>
<path class="st1" d="M129.37,39.14h-7.74c0.04,0.89,0.27,1.57,0.68,2.06c0.41,0.49,1.1,0.73,2.05,0.73c0.48,0,1.02-0.07,1.64-0.2
	c0.62-0.13,1.34-0.36,2.15-0.66c0.65,0.67,1.06,1.59,1.22,2.74c-1.58,1.13-3.53,1.7-5.83,1.7c-1.25,0-2.3-0.2-3.14-0.59
	c-0.84-0.4-1.53-0.95-2.05-1.67c-0.53-0.71-0.9-1.56-1.11-2.53c-0.22-0.97-0.33-2.03-0.33-3.19c0-1.11,0.13-2.14,0.4-3.08
	c0.27-0.94,0.67-1.76,1.22-2.45c0.55-0.69,1.24-1.24,2.08-1.64c0.84-0.4,1.83-0.59,2.96-0.59c0.95,0,1.81,0.16,2.57,0.48
	c0.76,0.32,1.41,0.76,1.95,1.31c0.54,0.56,0.95,1.22,1.24,1.99c0.29,0.77,0.43,1.62,0.43,2.53
	C129.76,37.28,129.63,38.3,129.37,39.14z M121.6,35.92h3.9v-0.33c0-0.73-0.16-1.34-0.49-1.82c-0.33-0.47-0.81-0.71-1.46-0.71
	c-0.63,0-1.1,0.22-1.4,0.67C121.84,34.18,121.66,34.91,121.6,35.92z"/>
<path class="st1" d="M133.27,24.67c1.61-0.04,2.98-0.07,4.12-0.09c1.14-0.02,2.06-0.03,2.75-0.03c2.16,0,3.86,0.45,5.1,1.35
	c1.24,0.9,1.86,2.26,1.86,4.06c0,0.88-0.25,1.68-0.74,2.44c-0.49,0.76-1.13,1.3-1.9,1.64c0.49,0.16,0.96,0.41,1.41,0.76
	c0.45,0.35,0.83,0.76,1.15,1.22c0.32,0.46,0.57,0.97,0.76,1.52c0.19,0.55,0.28,1.11,0.28,1.68c0,2.04-0.65,3.55-1.95,4.54
	c-1.3,0.98-3.14,1.47-5.52,1.47c-0.74,0-1.71-0.01-2.91-0.03c-1.21-0.02-2.68-0.05-4.41-0.09l-0.21-0.21V24.88L133.27,24.67z
	 M137.79,27.91v4.79h2.1c0.95,0,1.61-0.23,2-0.7c0.38-0.46,0.58-1.04,0.58-1.71c0-0.67-0.2-1.23-0.59-1.68
	c-0.39-0.44-1.06-0.67-1.98-0.67c-0.46,0-0.85,0-1.2,0C138.35,27.95,138.05,27.93,137.79,27.91z M140.25,36.1h-2.46v5.8
	c0.51-0.02,1.09-0.02,1.73,0c0.64,0.02,1.24-0.03,1.79-0.15c0.55-0.12,1.01-0.41,1.39-0.86c0.38-0.45,0.56-1.09,0.56-1.9
	c0-0.77-0.24-1.45-0.73-2.02C142.06,36.39,141.29,36.1,140.25,36.1z"/>
<path class="st1" d="M163.5,42.92c-0.1,0.42-0.29,0.86-0.56,1.34c-0.28,0.48-0.56,0.82-0.86,1.04c-1.39-0.04-2.46-0.57-3.21-1.58
	c-1.29,1.19-2.69,1.78-4.2,1.78c-0.77,0-1.45-0.12-2.02-0.37c-0.57-0.25-1.06-0.58-1.46-1c-0.4-0.42-0.69-0.9-0.89-1.44
	c-0.2-0.55-0.3-1.12-0.3-1.71c0-0.85,0.15-1.6,0.46-2.25c0.31-0.65,0.73-1.18,1.26-1.61c0.54-0.43,1.16-0.75,1.88-0.97
	c0.71-0.22,1.48-0.33,2.29-0.33c0.45,0,0.86,0.01,1.21,0.01c0.35,0.01,0.65,0.02,0.91,0.04v-0.57c0-1.26-0.65-1.9-1.93-1.9
	c-0.83,0-2.29,0.33-4.38,0.98c-0.59-0.69-0.97-1.77-1.13-3.24c0.48-0.18,1.01-0.35,1.59-0.51c0.58-0.16,1.19-0.3,1.8-0.42
	c0.62-0.12,1.22-0.21,1.82-0.28c0.6-0.07,1.13-0.1,1.61-0.1c0.69,0,1.36,0.1,2.01,0.3c0.65,0.2,1.21,0.5,1.7,0.91
	c0.49,0.41,0.87,0.93,1.16,1.58c0.29,0.65,0.43,1.42,0.43,2.31v6.04C162.67,41.89,162.95,42.54,163.5,42.92z M154.52,40.68
	c0,0.93,0.54,1.4,1.61,1.4c0.56,0,1.18-0.29,1.88-0.86v-2.38c-0.4-0.02-0.73-0.03-1-0.04c-0.27-0.01-0.47-0.01-0.61-0.01
	C155.14,38.78,154.52,39.41,154.52,40.68z"/>
<path class="st1" d="M178.95,35.24v6.1c0,1.31,0.24,2.29,0.71,2.95c-0.76,0.67-1.66,1.01-2.71,1.01c-1.03,0-1.74-0.24-2.11-0.71
	c-0.38-0.48-0.56-1.2-0.56-2.17v-6.34c0-0.67-0.09-1.17-0.27-1.49c-0.18-0.32-0.53-0.48-1.04-0.48c-0.3,0-0.64,0.08-1.01,0.24
	c-0.38,0.16-0.77,0.42-1.16,0.77v9.94c-0.34,0.06-0.7,0.1-1.1,0.13c-0.4,0.03-0.8,0.04-1.22,0.04c-0.42,0-0.82-0.01-1.22-0.04
	c-0.4-0.03-0.77-0.08-1.1-0.13V30.21l0.21-0.21h1.76c1.21,0,2.02,0.59,2.44,1.78c1.39-1.23,2.77-1.85,4.14-1.85
	c1.39,0,2.44,0.48,3.17,1.44C178.59,32.34,178.95,33.63,178.95,35.24z"/>
<path class="st1" d="M193.83,39.14l0.74,2.17c0.4,1.31,0.87,2.15,1.43,2.53c-0.88,0.97-1.91,1.46-3.12,1.46
	c-0.66,0-1.15-0.15-1.49-0.46c-0.34-0.31-0.64-0.85-0.89-1.62l-0.89-2.56c-0.2-0.62-0.43-1.03-0.68-1.23
	c-0.26-0.21-0.61-0.31-1.04-0.31c-0.44,0-0.74,0.01-0.92,0.03v5.92c-0.65,0.12-1.41,0.18-2.26,0.18c-0.85,0-1.61-0.06-2.26-0.18
	v-21.7l0.21-0.21h1.78c0.93,0,1.59,0.21,1.97,0.63c0.38,0.42,0.56,1.14,0.56,2.17v9.34h0.47c0.36,0,0.64-0.18,0.83-0.54l1.55-2.98
	c0.56-1.13,1.43-1.7,2.62-1.7c0.57,0,1.44,0.02,2.59,0.06l0.18,0.24l-2.29,4.43c-0.4,0.76-0.9,1.34-1.52,1.76
	C192.58,37.01,193.39,37.87,193.83,39.14z"/>
<path class="st2" d="M55.88,33.43c-0.15-0.31-0.45-0.5-0.8-0.5h-2.41c-0.22,0-0.43,0.08-0.59,0.23c-1.47,1.34-3.17,1.96-5.14,1.83
	c-3.47-0.22-6.06-2.83-6.03-6.07c0.03-2.42,2.02-4.4,4.5-4.4c1,0.01,2.01,0.48,2.64,1.22c0.12,0.14,0.28,0.36,0.39,0.61
	c0.06,0.19,0.05,0.38-0.01,0.56c-0.16,0.42-0.64,0.67-1.08,0.55c-0.01,0-0.01-0.01-0.02-0.01c-0.28-0.1-0.57-0.15-0.87-0.15
	c-1.06,0-2.02,0.67-2.39,1.67c-0.36,0.99-0.07,2.1,0.73,2.79c0.03,0.04,0.08,0.08,0.12,0.11L45,31.89c0.01,0.01,0.02,0.01,0.02,0.02
	c0.03,0.03,0.06,0.06,0.1,0.08c1.28,0.71,2.81,0.76,4.12,0.13c1.51-0.74,2.57-2.26,2.85-4.06c0.25-1.63-0.23-3.26-1.35-4.59
	c-1.29-1.52-3.27-2.45-5.28-2.47h-0.09c-4.34,0-7.92,3.53-7.97,7.88c-0.01,0.86,0.1,1.7,0.31,2.5c-0.15-0.02-0.3-0.04-0.46-0.04
	c-3.55-0.23-6.7,1.22-9.05,4.13c-0.22,0.27-0.26,0.63-0.11,0.94c0.15,0.31,0.45,0.5,0.8,0.5h2.41c0.22,0,0.43-0.08,0.59-0.23
	c1.47-1.34,3.18-1.96,5.14-1.83c3.47,0.22,6.06,2.83,6.03,6.07c-0.03,2.42-2.02,4.4-4.5,4.4c-0.99-0.01-2.01-0.48-2.64-1.22
	c-0.12-0.14-0.28-0.36-0.39-0.61c-0.06-0.19-0.05-0.38,0.01-0.56c0.16-0.42,0.64-0.67,1.08-0.55c0.01,0,0.01,0,0.02,0.01
	c0.28,0.1,0.57,0.15,0.87,0.15c1.06,0,2.02-0.67,2.38-1.67c0.36-0.99,0.07-2.1-0.73-2.79c-0.03-0.04-0.07-0.08-0.12-0.1l-0.06-0.04
	c-0.01-0.01-0.02-0.01-0.03-0.02c-0.03-0.03-0.06-0.06-0.1-0.08c-1.29-0.71-2.82-0.76-4.12-0.13c-1.51,0.74-2.57,2.26-2.85,4.06
	c-0.25,1.63,0.23,3.26,1.35,4.59c1.29,1.52,3.26,2.45,5.28,2.47h0.09c4.34,0,7.92-3.53,7.97-7.88c0.01-0.86-0.1-1.7-0.31-2.5
	c0.15,0.02,0.3,0.04,0.46,0.04c0.24,0.01,0.48,0.02,0.71,0.02c3.26,0,6.15-1.44,8.34-4.16C55.98,34.1,56.03,33.75,55.88,33.43z"/>
</svg>
